HIERARCHY
ROOT Elbow
{
	OFFSET	0.00	0.00	0.00
	CHANNELS 6 Xposition Yposition Zposition Zrotation Xrotation Yrotation
	JOINT L_Wrist
	{
		OFFSET	 0.208349	 0.000000	 0.000000
		CHANNELS 3 Zrotation Xrotation Yrotation
		JOINT L_index_Proximal
		{
			OFFSET	 0.093499	 0.010637	-0.002084
			CHANNELS 3 Zrotation Xrotation Yrotation
			JOINT L_index_b
			{
				OFFSET	 0.033152	 0.000000	 0.000000
				CHANNELS 3 Zrotation Xrotation Yrotation
				JOINT L_index_c
				{
					OFFSET	 0.018651	 0.000000	 0.000000
					CHANNELS 3 Zrotation Xrotation Yrotation
					End Site
					{
						OFFSET	 0.018651	 0.000000	 0.000000
					}
				}
			}
		}
		JOINT L_middle_Proximal
		{
			OFFSET	 0.090632	-0.006115	-0.003750
			CHANNELS 3 Zrotation Xrotation Yrotation
			JOINT L_middle_b
			{
				OFFSET	 0.037195	 0.000000	 0.000000
				CHANNELS 3 Zrotation Xrotation Yrotation
				JOINT L_middle_c
				{
					OFFSET	 0.021943	 0.000000	 0.000000
					CHANNELS 3 Zrotation Xrotation Yrotation
					End Site
					{
						OFFSET	 0.021943	 0.000000	 0.000000
					}
				}
			}
		}
		JOINT L_pinky_Proximal
		{
			OFFSET	 0.074015	-0.035449	-0.000417
			CHANNELS 3 Zrotation Xrotation Yrotation
			JOINT L_pinky_b
			{
				OFFSET	 0.027285	 0.000000	 0.000000
				CHANNELS 3 Zrotation Xrotation Yrotation
				JOINT L_pinky_c
				{
					OFFSET	 0.015093	 0.000000	 0.000000
					CHANNELS 3 Zrotation Xrotation Yrotation
					End Site
					{
						OFFSET	 0.015093	 0.000000	 0.000000
					}
				}
			}
		}
		JOINT L_ring_Proximal
		{
			OFFSET	 0.082801	-0.021859	-0.003750
			CHANNELS 3 Zrotation Xrotation Yrotation
			JOINT L_ring_b
			{
				OFFSET	 0.034478	 0.000000	 0.000000
				CHANNELS 3 Zrotation Xrotation Yrotation
				JOINT L_ring_c
				{
					OFFSET	 0.021377	 0.000000	 0.000000
					CHANNELS 3 Zrotation Xrotation Yrotation
					End Site
					{
						OFFSET	 0.021377	 0.000000	 0.000000
					}
				}
			}
		}
		JOINT L_thumb_Proximal
		{
			OFFSET	 0.030306	 0.018528	 0.004584
			CHANNELS 3 Zrotation Xrotation Yrotation
			JOINT L_thumb_a
			{
				OFFSET	 0.038520	 0.000000	 0.000000
				CHANNELS 3 Zrotation Xrotation Yrotation
				JOINT L_thumb_b
				{
					OFFSET	 0.026310	 0.000000	 0.000000
					CHANNELS 3 Zrotation Xrotation Yrotation
					End Site
					{
						OFFSET	 0.026310	 0.000000	 0.000000
					}
				}
			}
		}
	}
}
MOTION
Frames:    12
Frame Time: 0.01666667
 0.481295	-0.023109	 0.836540	-84.072630	 6.656162	-157.169700	 14.284420	-0.458885	-2.603428	 5.083766	-0.363043	 0.869425	-0.274218	 0.022823	-9.514072	-1.728802	 0.078427	-5.194592	-10.011990	-8.276340	-55.323700	 4.516357	-3.016771	-67.467930	 4.641846	-1.923523	-44.998530	-30.649770	-18.185560	-44.863820	 2.171441	-1.145276	-55.612170	 4.795103	-2.314239	-51.506260	-18.117240	-11.833900	-53.036640	 2.834415	-1.769516	-63.946580	 3.499485	-1.436196	-44.616260	 66.978710	 44.340850	-60.958900	-0.360448	 0.047149	-14.907810	-2.119688	 0.591916	-31.201160
 0.480586	-0.023156	 0.837345	-84.628680	 6.993248	-156.945600	 14.726300	-0.479117	-2.718298	 5.032598	-0.352268	 1.025313	-0.413967	 0.034410	-9.503503	-1.844095	 0.085046	-5.280541	-10.032210	-8.266376	-54.856600	 4.780012	-3.141750	-66.613960	 4.777114	-1.953364	-44.459930	-30.504570	-18.268620	-44.350910	 2.296452	-1.196665	-55.043210	 4.766799	-2.281409	-51.131950	-18.063380	-11.859990	-52.387040	 2.947897	-1.815023	-63.234380	 3.511536	-1.427050	-44.222200	 67.136910	 44.024320	-61.409100	-0.395688	 0.051660	-14.879490	-2.119974	 0.585330	-30.866560
 0.480204	-0.023253	 0.837504	-84.850580	 7.080302	-156.878200	 14.962250	-0.472492	-2.680660	 5.059662	-0.354670	 1.012079	-0.462345	 0.038474	-9.514422	-1.859774	 0.085652	-5.273234	-10.033120	-8.266346	-54.760390	 4.796830	-3.141543	-66.425870	 4.817069	-1.964967	-44.363210	-30.437880	-18.300910	-44.281920	 2.294050	-1.191421	-54.885830	 4.830261	-2.310825	-51.113120	-18.021590	-11.882570	-52.210540	 2.930187	-1.800163	-63.122240	 3.558908	-1.443870	-44.154670	 67.138500	 43.935230	-61.582310	-0.367839	 0.048020	-14.874280	-2.167924	 0.597469	-30.812510
 0.479840	-0.023330	 0.837735	-85.054890	 7.156299	-156.823600	 15.162250	-0.469649	-2.664551	 5.115505	-0.357970	 1.020109	-0.444362	 0.036810	-9.469954	-1.830820	 0.083772	-5.239448	-10.034730	-8.265718	-54.694550	 4.836343	-3.153030	-66.186370	 4.872139	-1.977520	-44.162890	-30.416690	-18.311350	-44.253670	 2.270395	-1.175891	-54.757060	 4.852851	-2.320776	-51.096470	-18.013340	-11.886430	-52.110740	 2.909901	-1.784487	-63.030380	 3.565833	-1.441641	-44.015540	 67.123470	 43.872260	-61.722630	-0.316633	 0.041235	-14.840970	-2.190261	 0.601350	-30.702010
 0.478881	-0.023356	 0.838309	-85.520950	 7.418799	-156.709600	 15.527860	-0.482882	-2.739690	 5.232693	-0.365468	 1.024390	-0.465962	 0.037664	-9.243638	-1.871675	 0.083774	-5.124851	-10.110640	-8.219020	-54.752420	 4.714891	-3.060227	-65.954640	 4.951533	-2.003944	-44.046720	-30.391780	-18.326320	-44.134230	 2.238351	-1.154239	-54.553330	 4.846927	-2.322967	-51.192940	-18.061290	-11.857170	-51.903620	 2.805133	-1.718767	-62.986970	 3.612689	-1.457785	-43.938980	 66.864420	 43.894420	-61.972590	-0.207786	 0.027033	-14.827250	-2.338859	 0.636919	-30.463300
 0.478491	-0.023281	 0.838577	-85.732120	 7.535847	-156.652400	 15.715100	-0.486780	-2.761786	 5.316823	-0.369720	 1.050053	-0.445630	 0.035975	-9.230477	-1.889142	 0.084487	-5.120932	-10.127950	-8.207934	-54.829010	 4.711305	-3.056424	-65.929300	 4.996638	-2.018357	-43.970840	-30.395990	-18.324900	-44.118650	 2.207058	-1.136909	-54.503860	 4.845666	-2.326197	-51.266770	-18.091290	-11.839840	-51.883480	 2.752234	-1.687058	-63.008710	 3.623929	-1.463172	-43.961980	 66.785960	 43.884140	-62.082040	-0.178525	 0.023194	-14.811200	-2.350939	 0.638008	-30.363750
 0.478113	-0.023259	 0.839023	-86.068280	 7.822478	-156.523300	 16.066570	-0.492976	-2.796984	 5.345028	-0.367631	 1.129176	-0.543412	 0.044175	-9.294279	-1.973582	 0.088759	-5.149739	-10.224530	-8.148233	-54.905800	 4.701561	-3.044636	-65.835480	 5.093649	-2.054643	-43.913770	-30.361090	-18.343580	-44.021530	 2.172796	-1.116161	-54.374670	 4.839634	-2.325049	-51.300500	-18.136080	-11.813620	-51.801540	 2.660541	-1.629427	-62.964030	 3.624728	-1.464282	-43.983350	 66.679040	 43.816180	-62.337270	-0.144741	 0.018796	-14.797960	-2.408426	 0.649929	-30.199840
 0.477948	-0.023215	 0.839078	-86.223010	 7.970390	-156.466200	 16.193040	-0.502109	-2.848843	 5.358259	-0.369113	 1.116719	-0.572021	 0.046483	-9.290567	-1.998029	 0.089984	-5.156940	-10.246850	-8.134614	-54.899110	 4.765503	-3.078959	-65.714940	 5.212417	-2.102215	-43.906420	-30.340310	-18.353570	-43.999470	 2.218858	-1.138895	-54.336990	 4.905294	-2.355940	-51.287420	-18.132510	-11.815620	-51.795440	 2.655046	-1.626221	-62.969340	 3.677715	-1.484250	-43.944660	 66.653040	 43.784250	-62.429560	-0.123592	 0.016046	-14.804320	-2.418331	 0.651450	-30.148570
 0.477920	-0.023276	 0.839077	-86.352790	 8.151451	-156.427300	 16.299730	-0.508864	-2.887224	 5.366570	-0.372595	 1.058002	-0.568239	 0.046163	-9.288528	-2.013373	 0.090756	-5.161463	-10.260110	-8.126737	-54.868040	 4.792363	-3.087843	-65.571700	 5.301046	-2.138463	-43.914990	-30.305650	-18.368620	-44.014610	 2.255888	-1.156206	-54.268600	 4.946648	-2.375451	-51.280600	-18.089750	-11.839980	-51.789470	 2.641113	-1.616041	-62.917470	 3.731242	-1.505533	-43.935810	 66.652660	 43.713390	-62.568470	-0.121689	 0.015804	-14.799020	-2.473207	 0.665281	-30.107270
 0.477938	-0.023672	 0.838960	-86.672780	 8.521326	-156.355300	 16.588560	-0.533199	-3.025418	 5.759570	-0.394120	 1.136644	-0.476263	 0.038193	-9.169746	-2.028657	 0.088870	-5.016240	-10.245020	-8.137403	-54.687890	 4.833068	-3.093288	-65.222370	 5.384305	-2.172293	-43.918620	-30.270430	-18.383700	-44.037680	 2.237866	-1.139309	-53.957790	 4.938584	-2.374082	-51.327960	-18.012990	-11.882570	-51.651820	 2.572653	-1.565392	-62.633480	 3.741693	-1.513349	-44.030390	 66.533810	 43.587860	-62.949440	-0.103180	 0.013358	-14.749400	-2.522409	 0.674801	-29.949940
 0.477928	-0.023791	 0.838986	-86.758470	 8.600231	-156.329500	 16.716540	-0.531332	-3.014802	 6.008462	-0.406230	 1.208798	-0.385943	 0.030238	-8.960670	-2.030969	 0.085867	-4.841421	-10.239880	-8.140203	-54.732140	 4.843507	-3.103490	-65.281330	 5.440095	-2.188906	-43.811340	-30.293620	-18.372520	-44.063690	 2.193667	-1.115552	-53.905550	 4.923060	-2.365686	-51.310350	-18.004720	-11.887170	-51.640530	 2.586618	-1.571667	-62.561630	 3.812184	-1.541564	-44.022370	 66.482750	 43.536490	-63.108020	-0.083762	 0.010840	-14.743250	-2.505971	 0.668207	-29.856320
 0.477923	-0.023901	 0.839153	-86.943500	 8.784299	-156.305000	 17.038970	-0.534095	-3.030517	 6.605648	-0.435092	 1.364512	-0.192616	 0.014607	-8.672637	-1.968622	 0.079790	-4.641597	-10.196790	-8.165507	-54.869040	 4.908069	-3.149254	-65.353650	 5.619280	-2.253133	-43.671470	-30.344430	-18.347370	-44.140660	 2.087066	-1.060305	-53.860700	 4.900346	-2.357940	-51.370800	-17.980700	-11.901180	-51.677710	 2.517508	-1.529333	-62.550070	 3.901907	-1.578347	-44.034570	 66.340220	 43.506520	-63.331010	-0.019675	 0.002529	-14.670080	-2.474116	 0.655314	-29.666430
